<svg width="52" height="52" viewBox="0 0 52 52" fill="none" xmlns="http://www.w3.org/2000/svg">
<g clip-path="url(#clip0)">
<path d="M44.3729 7.60288C34.2359 -2.53412 17.7409 -2.53512 7.60288 7.60288C-2.53512 17.7409 -2.53412 34.2349 7.60288 44.3729C17.7399 54.5109 34.2349 54.5109 44.3729 44.3729C54.5099 34.2349 54.5099 17.7399 44.3729 7.60288ZM36.2409 36.2409C35.4599 37.0219 34.1939 37.0219 33.4129 36.2409L25.9879 28.8159L18.2099 36.5939C17.4289 37.3749 16.1629 37.3749 15.3819 36.5939C14.6009 35.8129 14.6009 34.5469 15.3819 33.7659L23.1599 25.9879L15.7349 18.5629C14.9539 17.7819 14.9539 16.5149 15.7349 15.7349C16.5159 14.9539 17.7819 14.9539 18.5629 15.7349L25.9879 23.1599L33.0589 16.0889C33.8399 15.3079 35.1059 15.3079 35.8869 16.0889C36.6679 16.8699 36.6679 18.1359 35.8869 18.9169L28.8159 25.9879L36.2409 33.4129C37.0219 34.1939 37.0219 35.4599 36.2409 36.2409Z" fill="white"/>
</g>
<defs>
<clipPath id="clip0">
<rect width="51.976" height="51.976" fill="white"/>
</clipPath>
</defs>
</svg>
