<svg width="54" height="54" viewBox="0 0 54 54" fill="none" xmlns="http://www.w3.org/2000/svg">
<g clip-path="url(#clip0)">
<path d="M46.414 26L53.707 18.707C54.098 18.316 54.098 17.684 53.707 17.293C53.316 16.902 52.684 16.902 52.293 17.293L45 24.586L37.707 17.293C37.316 16.902 36.684 16.902 36.293 17.293C35.902 17.684 35.902 18.316 36.293 18.707L43.586 26L36.293 33.293C35.902 33.684 35.902 34.316 36.293 34.707C36.488 34.902 36.744 35 37 35C37.256 35 37.512 34.902 37.707 34.707L45 27.414L52.293 34.707C52.488 34.902 52.744 35 53 35C53.256 35 53.512 34.902 53.707 34.707C54.098 34.316 54.098 33.684 53.707 33.293L46.414 26Z" fill="white"/>
<path d="M26.894 4C26.343 4 25.797 4.153 25.315 4.444C25.269 4.471 25.225 4.503 25.185 4.537L11.634 16H1C0.447 16 0 16.447 0 17V36C0 36.553 0.447 37 1 37H11.61L25.153 49.436C25.203 49.482 25.257 49.522 25.314 49.556C25.797 49.847 26.343 50 26.894 50C28.606 50 30 48.584 30 46.844V7.156C30 5.416 28.606 4 26.894 4ZM13 35C13 35.553 12.553 36 12 36C11.447 36 11 35.553 11 35V31C11 30.447 11.447 30 12 30C12.553 30 13 30.447 13 31V35ZM13 22C13 22.553 12.553 23 12 23C11.447 23 11 22.553 11 22V18C11 17.447 11.447 17 12 17C12.553 17 13 17.447 13 18V22Z" fill="white"/>
</g>
<defs>
<clipPath id="clip0">
<rect width="54" height="54" fill="white"/>
</clipPath>
</defs>
</svg>
