<svg width="60" height="60" viewBox="0 0 60 60" fill="none" xmlns="http://www.w3.org/2000/svg">
<path d="M26.894 7.35815C26.343 7.35815 25.797 7.51115 25.315 7.80215C25.269 7.82915 25.225 7.86115 25.185 7.89515L11.634 19.3582H1C0.447 19.3582 0 19.8052 0 20.3582V39.3582C0 39.6242 0.105 39.8782 0.293 40.0652C0.481 40.2522 0.734 40.3582 1 40.3582L11.61 40.3532L25.153 52.7932C25.203 52.8392 25.257 52.8792 25.314 52.9132C25.796 53.2042 26.342 53.3572 26.893 53.3572C28.606 53.3572 29.999 51.9412 29.999 50.2012V10.5142C30 8.77415 28.606 7.35815 26.894 7.35815ZM13 38.3582C13 38.9112 12.553 39.3582 12 39.3582C11.447 39.3582 11 38.9112 11 38.3582V34.3582C11 33.8052 11.447 33.3582 12 33.3582C12.553 33.3582 13 33.8052 13 34.3582V38.3582ZM13 25.3582C13 25.9112 12.553 26.3582 12 26.3582C11.447 26.3582 11 25.9112 11 25.3582V21.3582C11 20.8052 11.447 20.3582 12 20.3582C12.553 20.3582 13 20.8052 13 21.3582V25.3582Z" fill="white"/>
<path d="M52.0259 29.858C52.0259 21.511 46.7099 14.098 38.7969 11.411C38.2749 11.234 37.7059 11.514 37.5279 12.037C37.3509 12.559 37.6309 13.128 38.1539 13.306C45.2549 15.717 50.0259 22.369 50.0259 29.859C50.0259 37.342 45.2639 43.995 38.1769 46.413C37.6549 46.591 37.3749 47.159 37.5539 47.683C37.6959 48.098 38.0839 48.36 38.4999 48.36C38.6069 48.36 38.7159 48.343 38.8229 48.306C46.7209 45.611 52.0259 38.198 52.0259 29.858Z" fill="white"/>
<path d="M44.453 6.37404C43.945 6.16104 43.358 6.39504 43.141 6.90404C42.926 7.41304 43.163 8.00003 43.672 8.21603C52.376 11.909 58 20.405 58 29.858C58 39.635 52.106 48.238 42.985 51.772C42.47 51.972 42.214 52.551 42.414 53.066C42.567 53.462 42.946 53.705 43.347 53.705C43.467 53.705 43.589 53.684 43.708 53.638C53.605 49.801 60 40.467 60 29.858C60 19.6 53.897 10.382 44.453 6.37404Z" fill="white"/>
<path d="M43.026 29.8579C43.026 23.8859 39.017 18.5559 33.277 16.8959C32.747 16.7449 32.193 17.0479 32.039 17.5799C31.886 18.1099 32.191 18.665 32.723 18.818C37.612 20.2309 41.027 24.7709 41.027 29.8579C41.027 34.9449 37.612 39.4849 32.723 40.8979C32.192 41.0509 31.886 41.606 32.039 42.136C32.166 42.574 32.565 42.8589 33 42.8589C33.092 42.8589 33.185 42.8459 33.277 42.8199C39.018 41.1589 43.026 35.8289 43.026 29.8579Z" fill="white"/>
</svg>
